<?xml version="1.0" encoding="utf-8"?>
<!-- Generator: Adobe Illustrator 21.1.0, SVG Export Plug-In . SVG Version: 6.00 Build 0)  -->
<svg version="1.1" id="Layer_1" xmlns="http://www.w3.org/2000/svg" xmlns:xlink="http://www.w3.org/1999/xlink" x="0px" y="0px"
	 viewBox="0 0 43.6666 48.9817" style="enable-background:new 0 0 43.6666 48.9817;" xml:space="preserve">
<style type="text/css">
	.st0{fill:#394651;}
	.st1{fill:#2D2829;}
	.st2{opacity:0.2;fill:#231F20;}
	.st3{fill:#4D5D63;}
	.st4{fill:#FBB040;}
	.st5{fill:#42393C;}
	.st6{fill:#FFFFFF;}
</style>
<g>
	<path class="st0" d="M25.9147,24.9985c0,0.481-0.9299,0.9026-1.972,1.1412c-0.8229,0.1884-1.6534,0.9146-1.6534,1.7587v1.864
		c0,0.4028,0.7854,0.7324,1.2237,0.9023c0.3367,0.1306,0.7986,0.3022,0.7986,0.4904c0,0.4002-0.9107,0.839-2.0223,0.8588v16.9377
		c0.5837-0.0681,1.1571-0.2505,1.6837-0.5526l17.4205-9.9929c0.056-0.0321,0.1055-0.072,0.1598-0.1063
		c-0.7141-0.1572-1.2492-0.7917-1.2492-1.553v-0.4153c0-0.8793,0.7128-1.5921,1.5921-1.5921h1.7042
		c0.0018-0.0499,0.0101-0.0986,0.0103-0.1488l0.0046-1.651H41.896c-0.8793,0-1.5921-0.7128-1.5921-1.5921v-0.4154
		c0-0.8793,0.7128-1.5921,1.5921-1.5921h1.7291l0.0293-10.464c-0.6679,0.8582-1.5864,1.6876-2.8709,2.2734
		c-3.9075,1.782-9.0306-2.0408-9.0306-2.0408s1.2121-5.5254,5.1195-7.3074c2.3349-1.0648,4.9327,0.3093,6.6513,1.5883
		c-0.2918-1.1265-1.0204-2.1098-2.0529-2.7098L24.1065,0.5898c-0.5657-0.3288-1.1869-0.5138-1.8173-0.5712v23.2319
		C24.3202,23.2879,25.9147,24.2672,25.9147,24.9985z"/>
	<path class="st1" d="M24.3115,31.1553c0-0.1882-0.462-0.3598-0.7986-0.4904c-0.4382-0.17-1.2237-0.4995-1.2237-0.9023v2.2515
		C23.4009,31.9942,24.3115,31.5554,24.3115,31.1553z"/>
	<path class="st1" d="M23.9427,26.1398c1.0422-0.2387,1.972-0.6603,1.972-1.1412c0-0.7313-1.5945-1.7106-3.6255-1.748v4.6479
		C22.2892,27.0544,23.1198,26.3282,23.9427,26.1398z"/>
	<path class="st0" d="M22.2892,32.014c-0.0256,0.0004-0.0498,0.0037-0.0757,0.0037c-1.1464,0-2.1095-0.453-2.1095-0.8624
		c0-0.1882,0.1786-0.3598,0.5145-0.4904c0.4358-0.1694,0.8908-0.4969,0.8908-0.8971v-1.8696c0-0.8439-0.5109-1.5699-1.3335-1.7586
		c-1.0402-0.2387-1.7687-0.6602-1.7687-1.1411c0-0.7455,1.6788-1.7548,3.7662-1.7548c0.0398,0,0.0765,0.0061,0.116,0.0068V0.0187
		c-0.8884-0.0809-1.7956,0.0999-2.5956,0.5588L2.2732,10.5704c-1.1288,0.6475-1.8929,1.754-2.1308,3.0064
		c1.7087-1.3255,4.4541-2.8923,6.9032-1.7754c3.9074,1.782,5.1195,7.3074,5.1195,7.3074s-5.1231,3.8228-9.0305,2.0408
		c-1.4301-0.6522-2.4097-1.6058-3.0902-2.5657L0.0153,29.0152h1.8967c0.8793,0,1.5921,0.7128,1.5921,1.5921v0.4153
		c0,0.8793-0.7128,1.5921-1.5921,1.5921H0.0052l-0.005,1.7998h1.9118c0.8793,0,1.5921,0.7128,1.5921,1.5921v0.4154
		c0,0.8793-0.7128,1.5921-1.5921,1.5921H1.7763c0.1345,0.1004,0.2724,0.197,0.4195,0.2825l17.3643,10.0901
		c0.8382,0.4871,1.7969,0.6737,2.7291,0.5649V32.014z"/>
	<path class="st2" d="M22.2892,32.014c-0.0256,0.0004-0.0498,0.0037-0.0757,0.0037c-1.1464,0-2.1095-0.453-2.1095-0.8624
		c0-0.1882,0.1786-0.3598,0.5145-0.4904c0.4358-0.1694,0.8908-0.4969,0.8908-0.8971v-1.8696c0-0.8439-0.5109-1.5699-1.3335-1.7586
		c-1.0402-0.2387-1.7687-0.6602-1.7687-1.1411c0-0.7455,1.6788-1.7548,3.7662-1.7548c0.0398,0,0.0765,0.0061,0.116,0.0068V0.0187
		c-0.8884-0.0809-1.7956,0.0999-2.5956,0.5588L2.2732,10.5704c-1.1288,0.6475-1.8929,1.754-2.1308,3.0064
		c1.7087-1.3255,4.4541-2.8923,6.9032-1.7754c3.9074,1.782,5.1195,7.3074,5.1195,7.3074s-5.1231,3.8228-9.0305,2.0408
		c-1.4301-0.6522-2.4097-1.6058-3.0902-2.5657L0.0153,29.0152h1.8967c0.8793,0,1.5921,0.7128,1.5921,1.5921v0.4153
		c0,0.8793-0.7128,1.5921-1.5921,1.5921H0.0052l-0.005,1.7998h1.9118c0.8793,0,1.5921,0.7128,1.5921,1.5921v0.4154
		c0,0.8793-0.7128,1.5921-1.5921,1.5921H1.7763c0.1345,0.1004,0.2724,0.197,0.4195,0.2825l17.3643,10.0901
		c0.8382,0.4871,1.7969,0.6737,2.7291,0.5649V32.014z"/>
	<path class="st1" d="M22.2892,27.8985v-4.6479c-0.0395-0.0007-0.0762-0.0068-0.116-0.0068c-2.0874,0-3.7662,1.0093-3.7662,1.7548
		c0,0.4809,0.7286,0.9024,1.7687,1.1411c0.8226,0.1887,1.3335,0.9147,1.3335,1.7586v1.8696c0,0.4002-0.455,0.7277-0.8908,0.8971
		c-0.3359,0.1306-0.5145,0.3022-0.5145,0.4904c0,0.4094,0.9632,0.8624,2.1095,0.8624c0.0259,0,0.05-0.0032,0.0757-0.0037v-2.2515
		V27.8985z"/>
	<path class="st2" d="M22.2892,27.8985v-4.6479c-0.0395-0.0007-0.0762-0.0068-0.116-0.0068c-2.0874,0-3.7662,1.0093-3.7662,1.7548
		c0,0.4809,0.7286,0.9024,1.7687,1.1411c0.8226,0.1887,1.3335,0.9147,1.3335,1.7586v1.8696c0,0.4002-0.455,0.7277-0.8908,0.8971
		c-0.3359,0.1306-0.5145,0.3022-0.5145,0.4904c0,0.4094,0.9632,0.8624,2.1095,0.8624c0.0259,0,0.05-0.0032,0.0757-0.0037v-2.2515
		V27.8985z"/>
	<path class="st3" d="M3.5041,31.0226v-0.4153c0-0.8793-0.7128-1.5921-1.5921-1.5921H0.0153l-0.0101,3.5996h1.9068
		C2.7912,32.6148,3.5041,31.902,3.5041,31.0226z"/>
	<path class="st3" d="M3.5041,36.422v-0.4154c0-0.8793-0.7128-1.5921-1.5921-1.5921H0.0002L0,34.4689
		c-0.0039,1.4064,0.6648,2.716,1.7762,3.5453h0.1357C2.7912,38.0141,3.5041,37.3013,3.5041,36.422z"/>
	<path class="st3" d="M40.3039,30.9322v0.4154c0,0.8793,0.7128,1.5921,1.5921,1.5921h1.7191l0.01-3.5996H41.896
		C41.0168,29.3401,40.3039,30.053,40.3039,30.9322z"/>
	<path class="st3" d="M40.3039,36.3316v0.4153c0,0.7613,0.5352,1.3958,1.2492,1.553c1.2279-0.7774,1.9936-2.1062,2.047-3.5604
		H41.896C41.0168,34.7395,40.3039,35.4523,40.3039,36.3316z"/>
	<path class="st4" d="M36.8725,11.8014c-3.9074,1.782-5.1195,7.3074-5.1195,7.3074s5.1231,3.8228,9.0306,2.0408
		c1.2845-0.5858,2.203-1.4152,2.8709-2.2734l0.0122-4.3684c0.0011-0.3824-0.0494-0.7573-0.1429-1.118
		C41.8052,12.1106,39.2073,10.7365,36.8725,11.8014z M41.4791,16.0221c0,2.1371-1.743,3.8695-3.8931,3.8695
		c-2.1501,0-3.8931-1.7324-3.8931-3.8695s1.7429-3.8695,3.8931-3.8695C39.7361,12.1526,41.4791,13.885,41.4791,16.0221z"/>
	<path class="st5" d="M33.6929,16.0221c0,2.1371,1.7429,3.8695,3.8931,3.8695c2.1501,0,3.8931-1.7324,3.8931-3.8695
		s-1.743-3.8695-3.8931-3.8695C35.4359,12.1526,33.6929,13.885,33.6929,16.0221z M36.0797,15.2122
		c-0.6958,0-1.2598-0.5641-1.2598-1.2599c0-0.6958,0.564-1.2599,1.2598-1.2599c0.6958,0,1.2599,0.564,1.2599,1.2599
		C37.3396,14.6482,36.7755,15.2122,36.0797,15.2122z"/>
	<circle class="st6" cx="36.0797" cy="13.9523" r="1.2598"/>
	<path class="st4" d="M3.1346,21.1495c3.9074,1.782,9.0305-2.0408,9.0305-2.0408s-1.2121-5.5254-5.1195-7.3074
		c-2.4491-1.1169-5.1945,0.45-6.9032,1.7754c-0.0503,0.2649-0.0855,0.5339-0.0862,0.8091l-0.0117,4.198
		C0.7249,19.5437,1.7045,20.4973,3.1346,21.1495z M6.3321,12.1526c2.1501,0,3.8931,1.7324,3.8931,3.8695
		s-1.743,3.8695-3.8931,3.8695S2.439,18.1592,2.439,16.0221S4.182,12.1526,6.3321,12.1526z"/>
	<path class="st5" d="M6.3321,19.8917c2.1501,0,3.8931-1.7324,3.8931-3.8695s-1.743-3.8695-3.8931-3.8695
		S2.439,13.885,2.439,16.0221S4.182,19.8917,6.3321,19.8917z M7.8383,12.6925c0.6958,0,1.2599,0.564,1.2599,1.2599
		c0,0.6958-0.564,1.2599-1.2599,1.2599c-0.6958,0-1.2599-0.5641-1.2599-1.2599C6.5785,13.2565,7.1426,12.6925,7.8383,12.6925z"/>
	<circle class="st6" cx="7.8383" cy="13.9523" r="1.2599"/>
</g>
<g>
</g>
<g>
</g>
<g>
</g>
<g>
</g>
<g>
</g>
<g>
</g>
<g>
</g>
<g>
</g>
<g>
</g>
<g>
</g>
<g>
</g>
<g>
</g>
<g>
</g>
<g>
</g>
<g>
</g>
</svg>
